<?xml version="1.0" standalone="no"?>
<!DOCTYPE svg PUBLIC "-//W3C//DTD SVG 20010904//EN"
 "http://www.w3.org/TR/2001/REC-SVG-20010904/DTD/svg10.dtd">
<svg version="1.0" xmlns="http://www.w3.org/2000/svg"
 width="272.000000pt" height="281.000000pt" viewBox="0 0 272.000000 281.000000"
 preserveAspectRatio="xMidYMid meet">
<metadata>
Created by potrace 1.13, written by Peter Selinger 2001-2015
</metadata>
<g transform="translate(0.000000,281.000000) scale(0.100000,-0.100000)"
fill="#000000" stroke="none">
<path d="M2346 2681 l-348 -117 278 -273 c153 -150 279 -269 281 -265 3 13
140 692 148 737 4 20 3 37 -1 36 -5 0 -166 -53 -358 -118z"/>
</g>
<g transform="translate(0.000000,281.000000) scale(0.100000,-0.100000)"
fill="#da251c" stroke="none">
<path d="M895 2195 c-478 -162 -874 -295 -878 -297 -4 -2 140 -134 320 -294
180 -160 510 -453 733 -650 223 -198 553 -491 734 -652 182 -160 333 -289 337
-285 3 5 18 66 32 138 69 342 328 1612 332 1625 5 16 -703 704 -727 706 -7 1
-404 -130 -883 -291z m1070 17 l100 -17 3 -112 c3 -126 6 -122 -73 -103 -84
20 -289 32 -333 21 -56 -16 -105 -60 -130 -119 -38 -88 -47 -173 -47 -447 0
-219 3 -270 18 -325 25 -90 60 -146 107 -170 64 -32 216 -27 428 16 l32 7 0
-112 c0 -130 11 -119 -139 -145 -110 -19 -287 -21 -363 -5 -155 34 -244 119
-302 292 -64 191 -73 649 -16 870 59 231 169 331 410 371 41 7 199 -5 305 -22z"/>
</g>
</svg>
