<svg xmlns="http://www.w3.org/2000/svg" width="853.333" height="853.333" viewBox="0 0 640 640"><path fill="#87b200" d="M4.73 377L0 332C-1.17 231.96 31.51 135.28 110 69.44c42.12-35.33 96.7-58.01 151-65.57L297 0h49l38 4.58c35.73 5.54 72.58 17.87 104 35.85C541.09 70.8 579.35 113.32 606.24 168 629.36 215.01 640 266.83 640 319H85l1 18c.07 13.74 5.29 37.39 8.88 51L98 399l-81 29c-5.4-12.32-10.25-37.27-12.27-51zm489.43-221l-8.16-8.91c-34.3-32.33-78.39-52.53-125-58.81-9.87-1.33-20.05-2.26-30-2.28l-11-.66-17 .66-19 1.84c-35.79 3.82-69.99 15.91-100 35.83-30.13 20-55.03 47.97-71.25 80.33-4.56 9.1-12.24 25.24-13.75 35h443c-10.63-31.88-25.41-57.89-47.84-83z"/><path fill="#4f660b" d="M143.72 481c12.28 14.12 25.74 25.64 41.28 36 3.08 2.05 12.54 8.89 16 8.28 2.62-.46 6.12-4.4 8-6.28l15.09-16L281 446l29-29c2.36-2.36 7.37-8.57 11-7.66 2.27.56 6.26 4.92 8 6.66l18 18 64 64 21 21c2.17 2.17 5.77 7.05 9.17 6.3 1.5-.33 7.18-3.9 8.83-4.9 8.04-4.85 15.75-10.51 23-16.48 30.57-25.21 51.43-56.38 66-92.92 4.35-10.9 8.34-24.51 10.79-36 .59-2.78 1.84-12.51 3.8-13.96 2.4-1.78 13.18.83 16.41 1.37l47 8.18c3.47.58 16.03 1.63 17.36 4.72 1.15 2.68-2.21 17.15-3.01 20.69-4.17 18.44-9.52 36.44-16.55 54-27.05 67.63-74.22 122.45-139.8 155.25-10.16 5.07-28.35 13.19-39 16.4-7.8 2.36-9.68-1.34-15-6.65l-15-15-63-64-16-16c-1.63-1.6-4.58-4.96-7-4.96-2.73 0-7.1 5.06-9 6.96l-20 20-16.01 17L237 597l-25 24.36c-4.38 2.57-10.64-.84-15-2.36-10.8-3.75-27.07-10.98-37-16.58-39.58-22.32-67.36-44.68-94.87-81.42-6.36-8.48-21.15-29.57-24.13-39l49-28.42L115 440c8.24 15.58 17.18 27.74 28.72 41z"/></svg>